<svg width="159.000000" height="41.000000" viewBox="0 0 159 41" fill="none" xmlns="http://www.w3.org/2000/svg" xmlns:xlink="http://www.w3.org/1999/xlink">
	<desc>
			Created with Pixso.
	</desc>
	<defs/>
	<g style="mix-blend-mode:normal">
		<path id="Trafalgar" d="M88.88 17.86L88.88 29L89.89 29L89.89 17.86L93.42 17.86L93.42 17L89.89 17L89.89 15.29Q89.89 14.26 90.15 13.58Q90.36 13.06 90.73 12.73Q90.85 12.62 90.98 12.54Q91.55 12.17 92.38 12.17Q92.84 12.17 93.25 12.27Q93.66 12.36 93.93 12.48L93.93 11.52Q93.66 11.41 93.2 11.32Q92.75 11.24 92.34 11.24Q91.06 11.24 90.23 11.85Q89.99 12.02 89.78 12.25Q88.88 13.27 88.88 15.13L88.88 17L86.48 17L86.48 17.86L88.88 17.86ZM109.74 11.33L109.74 29L110.74 29L110.74 11.33L109.74 11.33ZM58.52 13.01L58.52 29L59.53 29L59.53 13.01L65.82 13.01L65.82 12.07L52.24 12.07L52.24 13.01L58.52 13.01ZM66.42 19.73L66.42 29L67.43 29L67.43 21.31Q67.43 20.52 67.88 19.7Q68 19.47 68.15 19.27Q68.56 18.71 69.17 18.3Q69.36 18.17 69.57 18.07Q70.26 17.74 71.1 17.74Q71.41 17.74 71.69 17.76Q71.96 17.79 72.2 17.86L72.25 16.92Q72.01 16.85 71.73 16.83Q71.46 16.8 71.17 16.8Q70.36 16.8 69.52 17.12Q69.18 17.25 68.86 17.43Q68.43 17.69 68.06 18.06Q67.97 18.14 67.89 18.23Q67.57 18.6 67.37 19.07L67.26 17L66.28 17Q66.35 17.67 66.38 18.37Q66.42 19.06 66.42 19.73ZM76.22 28.52Q77.38 29.19 78.92 29.19Q80.22 29.19 81.25 28.66Q81.55 28.5 81.83 28.3Q82.28 27.98 82.62 27.56Q82.95 27.14 83.17 26.64L83.17 29L84.18 29L84.18 19.58Q84.18 18.96 84.24 18.32Q84.3 17.67 84.37 17L83.38 17L83.2 19.42Q82.96 18.85 82.59 18.4Q82.26 18 81.84 17.69Q81.61 17.52 81.36 17.39Q80.3 16.8 78.92 16.8Q77.47 16.8 76.35 17.41Q76.23 17.48 76.11 17.55Q75.82 17.73 75.55 17.95Q74.75 18.63 74.25 19.67Q73.59 21.05 73.59 23Q73.59 24.92 74.24 26.31Q74.72 27.35 75.52 28.03Q75.79 28.26 76.09 28.44Q76.16 28.48 76.22 28.52ZM97.56 28.52Q98.72 29.19 100.26 29.19Q101.56 29.19 102.59 28.66Q102.89 28.5 103.16 28.3Q103.61 27.98 103.95 27.56Q104.28 27.14 104.5 26.64L104.5 29L105.52 29L105.52 19.58Q105.52 18.96 105.58 18.32Q105.64 17.67 105.71 17L104.72 17L104.54 19.42Q104.3 18.85 103.92 18.4Q103.6 18 103.17 17.69Q102.94 17.52 102.7 17.39Q101.64 16.8 100.26 16.8Q98.8 16.8 97.68 17.41Q97.56 17.48 97.45 17.55Q97.15 17.73 96.89 17.95Q96.09 18.63 95.59 19.67Q94.93 21.05 94.93 23Q94.93 24.92 95.57 26.31Q96.06 27.35 96.85 28.03Q97.12 28.26 97.43 28.44Q97.49 28.48 97.56 28.52ZM117.26 33.92Q118.55 34.34 120.01 34.34Q122.26 34.34 123.48 33.22Q123.56 33.15 123.63 33.07Q124.86 31.8 124.86 29.31L124.86 19.58Q124.86 18.96 124.92 18.32Q124.98 17.67 125.05 17L124.07 17L123.88 19.46Q123.63 18.84 123.21 18.35Q122.9 17.98 122.49 17.69Q122.24 17.51 121.97 17.36Q120.91 16.8 119.56 16.8Q117.9 16.8 116.69 17.53Q116.28 17.78 115.93 18.1Q115.25 18.72 114.81 19.6Q114.15 20.93 114.15 22.75Q114.15 24.58 114.81 25.92Q115.26 26.83 115.95 27.45Q116.29 27.76 116.69 28Q117.9 28.73 119.56 28.73Q120.93 28.73 121.99 28.16Q122.25 28.02 122.49 27.85Q122.94 27.52 123.28 27.11Q123.62 26.68 123.85 26.16L123.85 29.48Q123.85 31.32 122.93 32.33Q122.91 32.36 122.88 32.39Q122.79 32.49 122.69 32.57Q121.74 33.41 120.04 33.41Q119.12 33.41 118.37 33.25Q118 33.18 117.66 33.06Q117.28 32.94 116.91 32.76Q116.22 32.43 115.43 31.85L114.95 32.67Q115.35 32.99 115.78 33.26Q116.47 33.67 117.26 33.92ZM130.87 28.52Q132.03 29.19 133.57 29.19Q134.87 29.19 135.9 28.66Q136.2 28.5 136.47 28.3Q136.93 27.98 137.26 27.56Q137.59 27.14 137.82 26.64L137.82 29L138.83 29L138.83 19.58Q138.83 18.96 138.89 18.32Q138.95 17.67 139.02 17L138.03 17L137.85 19.42Q137.61 18.85 137.23 18.4Q136.91 18 136.49 17.69Q136.26 17.52 136.01 17.39Q134.95 16.8 133.57 16.8Q132.12 16.8 130.99 17.41Q130.88 17.48 130.76 17.55Q130.47 17.73 130.2 17.95Q129.4 18.63 128.9 19.67Q128.24 21.05 128.24 23Q128.24 24.92 128.89 26.31Q129.37 27.35 130.17 28.03Q130.43 28.26 130.74 28.44Q130.8 28.48 130.87 28.52ZM143 19.73L143 29L144.01 29L144.01 21.31Q144.01 20.52 144.47 19.7Q144.59 19.47 144.74 19.27Q145.14 18.71 145.75 18.3Q145.95 18.17 146.16 18.07Q146.84 17.74 147.68 17.74Q147.99 17.74 148.27 17.76Q148.54 17.79 148.78 17.86L148.84 16.92Q148.6 16.85 148.32 16.83Q148.04 16.8 147.75 16.8Q146.94 16.8 146.11 17.12Q145.76 17.25 145.45 17.43Q145.01 17.69 144.64 18.06Q144.55 18.14 144.47 18.23Q144.16 18.6 143.96 19.07L143.85 17L142.86 17Q142.93 17.67 142.97 18.37Q143 19.06 143 19.73ZM81.11 27.69Q80.19 28.25 78.92 28.25Q77.68 28.25 76.75 27.71Q76.22 27.39 75.79 26.9Q74.63 25.54 74.63 23Q74.63 20.45 75.79 19.1Q76.22 18.6 76.76 18.28Q77.68 17.74 78.92 17.74Q80.18 17.74 81.1 18.29Q81.63 18.61 82.04 19.1Q83.2 20.45 83.2 23Q83.2 25.54 82.04 26.9Q81.63 27.38 81.11 27.69ZM102.45 27.69Q101.52 28.25 100.26 28.25Q99.01 28.25 98.09 27.71Q97.55 27.39 97.13 26.9Q95.96 25.54 95.96 23Q95.96 20.45 97.13 19.1Q97.56 18.6 98.1 18.28Q99.02 17.74 100.26 17.74Q101.51 17.74 102.44 18.29Q102.96 18.61 103.38 19.1Q104.53 20.45 104.53 23Q104.53 25.54 103.38 26.9Q102.97 27.38 102.45 27.69ZM121.84 27.19Q120.87 27.79 119.53 27.79Q118.2 27.79 117.24 27.2Q116.76 26.91 116.36 26.46Q115.19 25.13 115.19 22.75Q115.19 20.38 116.36 19.06Q116.75 18.63 117.23 18.34Q118.2 17.74 119.53 17.74Q120.88 17.74 121.85 18.35Q122.31 18.64 122.69 19.06Q123.85 20.38 123.85 22.75Q123.85 25.13 122.69 26.46Q122.31 26.9 121.84 27.19ZM135.76 27.69Q134.83 28.25 133.57 28.25Q132.32 28.25 131.4 27.71Q130.87 27.39 130.44 26.9Q129.27 25.54 129.27 23Q129.27 20.45 130.44 19.1Q130.87 18.6 131.41 18.28Q132.33 17.74 133.57 17.74Q134.83 17.74 135.75 18.29Q136.27 18.61 136.69 19.1Q137.85 20.45 137.85 23Q137.85 25.54 136.69 26.9Q136.28 27.38 135.76 27.69Z" fill="#233348" fill-opacity="1.000000" fill-rule="evenodd"/>
	</g>
	<circle id="Ellipse 7" cx="20.500000" cy="20.500000" r="20.500000" fill="#458FF6" fill-opacity="1.000000"/>
	<g style="mix-blend-mode:normal">
		<path id="T" d="M19.07 11.19L19.07 28.51L20.16 28.51L20.16 11.19L26.97 11.19L26.97 10.17L12.26 10.17L12.26 11.19L19.07 11.19Z" fill="#FFFFFF" fill-opacity="1.000000" fill-rule="evenodd"/>
	</g>
</svg>
